ticks_per_beat=480,tempo=120,tick_time=2.5e-07
MetaMessage('time_signature', numerator=4, denominator=4, clocks_per_click=24, notated_32nd_notes_per_beat=8, time=0)
MetaMessage('text', text='func:curr:inner', time=0)
MetaMessage('text', text='scale:C-chromatic', time=0)
MetaMessage('key_signature', key='Cm', time=0)
note_on channel=0 note=60 velocity=96 time=0.0010416666666666667
note_off channel=0 note=60 velocity=64 time=0.125
note_on channel=0 note=63 velocity=64 time=0
note_off channel=0 note=63 velocity=64 time=0.015625
note_on channel=0 note=61 velocity=64 time=0
note_off channel=0 note=61 velocity=64 time=0.046875
note_on channel=0 note=64 velocity=64 time=0
note_off channel=0 note=64 velocity=64 time=0.046875
note_on channel=0 note=62 velocity=64 time=0
note_off channel=0 note=62 velocity=64 time=0.015625
note_on channel=0 note=65 velocity=64 time=0
note_off channel=0 note=65 velocity=64 time=0.041666666666666664
note_on channel=0 note=63 velocity=64 time=0
note_off channel=0 note=63 velocity=64 time=0.020833333333333332
note_on channel=0 note=66 velocity=64 time=0
note_off channel=0 note=66 velocity=64 time=0.041666666666666664
note_on channel=0 note=64 velocity=64 time=0
note_off channel=0 note=64 velocity=64 time=0.020833333333333332
note_on channel=0 note=67 velocity=64 time=0
note_off channel=0 note=67 velocity=64 time=0.125
note_on channel=0 note=65 velocity=64 time=0
note_off channel=0 note=65 velocity=64 time=0.125
note_on channel=0 note=68 velocity=64 time=0
note_off channel=0 note=68 velocity=64 time=0.046875
note_on channel=0 note=66 velocity=64 time=0
note_off channel=0 note=66 velocity=64 time=0.015625
note_on channel=0 note=69 velocity=64 time=0
note_off channel=0 note=69 velocity=64 time=0.03125
note_on channel=0 note=67 velocity=64 time=0
note_off channel=0 note=67 velocity=64 time=0.03125
note_on channel=0 note=70 velocity=64 time=0
note_off channel=0 note=70 velocity=64 time=0.0625
note_on channel=0 note=68 velocity=64 time=0
note_off channel=0 note=68 velocity=64 time=0.0625
note_on channel=0 note=71 velocity=64 time=0
note_off channel=0 note=71 velocity=64 time=0.0625
note_on channel=0 note=69 velocity=64 time=0
note_off channel=0 note=69 velocity=64 time=0.020833333333333332
note_on channel=0 note=72 velocity=64 time=0
note_off channel=0 note=72 velocity=64 time=0.041666666666666664
note_on channel=0 note=70 velocity=64 time=0
note_off channel=0 note=70 velocity=64 time=0.015625
note_on channel=0 note=73 velocity=64 time=0
note_off channel=0 note=73 velocity=64 time=0.046875
note_on channel=0 note=71 velocity=64 time=0
note_off channel=0 note=71 velocity=64 time=0.020833333333333332
note_on channel=0 note=74 velocity=64 time=0
note_off channel=0 note=74 velocity=64 time=0.041666666666666664
note_on channel=0 note=72 velocity=64 time=0
note_off channel=0 note=72 velocity=64 time=0.125
note_on channel=0 note=75 velocity=64 time=0
note_off channel=0 note=75 velocity=64 time=0.041666666666666664
note_on channel=0 note=73 velocity=64 time=0
note_off channel=0 note=73 velocity=64 time=0.020833333333333332
note_on channel=0 note=76 velocity=64 time=0
note_off channel=0 note=76 velocity=64 time=0.020833333333333332
note_on channel=0 note=74 velocity=64 time=0
note_off channel=0 note=74 velocity=64 time=0.041666666666666664
note_on channel=0 note=77 velocity=64 time=0
note_off channel=0 note=77 velocity=64 time=0.125
note_on channel=0 note=75 velocity=64 time=0
note_off channel=0 note=75 velocity=64 time=0.125
note_on channel=0 note=78 velocity=64 time=0
note_off channel=0 note=78 velocity=64 time=0.0625
note_on channel=0 note=76 velocity=64 time=0
note_off channel=0 note=76 velocity=64 time=0.020833333333333332
note_on channel=0 note=79 velocity=64 time=0
note_off channel=0 note=79 velocity=64 time=0.041666666666666664
note_on channel=0 note=77 velocity=64 time=0
note_off channel=0 note=77 velocity=64 time=0.09375
note_on channel=0 note=80 velocity=64 time=0
note_off channel=0 note=80 velocity=64 time=0.03125
note_on channel=0 note=78 velocity=64 time=0
note_off channel=0 note=78 velocity=64 time=0.0625
note_on channel=0 note=81 velocity=64 time=0
note_off channel=0 note=81 velocity=64 time=0.0625
note_on channel=0 note=79 velocity=64 time=0
note_off channel=0 note=79 velocity=64 time=0.014583333333333334
note_on channel=0 note=77 velocity=64 time=0
note_on channel=0 note=81 velocity=64 time=0.027083333333333334
note_off channel=0 note=77 velocity=64 time=0.0010416666666666667
note_off channel=0 note=81 velocity=64 time=0.019791666666666666
note_on channel=0 note=79 velocity=64 time=0
note_off channel=0 note=79 velocity=64 time=0.020833333333333332
note_on channel=0 note=78 velocity=64 time=0
note_off channel=0 note=78 velocity=64 time=0.041666666666666664
note_on channel=0 note=76 velocity=64 time=0
note_off channel=0 note=76 velocity=64 time=0.010416666666666666
note_on channel=0 note=80 velocity=64 time=0
note_off channel=0 note=80 velocity=64 time=0.03125
note_on channel=0 note=78 velocity=64 time=0
note_off channel=0 note=78 velocity=64 time=0.020833333333333332
note_on channel=0 note=77 velocity=64 time=0
note_off channel=0 note=77 velocity=64 time=0.0625
note_on channel=0 note=75 velocity=64 time=0
note_off channel=0 note=75 velocity=64 time=0.020833333333333332
note_on channel=0 note=79 velocity=64 time=0
note_off channel=0 note=79 velocity=64 time=0.020833333333333332
note_on channel=0 note=77 velocity=64 time=0
note_off channel=0 note=77 velocity=64 time=0.020833333333333332
note_on channel=0 note=76 velocity=64 time=0
note_off channel=0 note=76 velocity=64 time=0.010416666666666666
note_on channel=0 note=74 velocity=64 time=0
note_off channel=0 note=74 velocity=64 time=0.010416666666666666
note_on channel=0 note=78 velocity=64 time=0
note_off channel=0 note=78 velocity=64 time=0.05625
note_on channel=0 note=76 velocity=64 time=0
note_on channel=0 note=75 velocity=64 time=0.027083333333333334
note_off channel=0 note=76 velocity=64 time=0.0010416666666666667
note_off channel=0 note=75 velocity=64 time=0.019791666666666666
note_on channel=0 note=73 velocity=64 time=0
note_off channel=0 note=73 velocity=64 time=0.020833333333333332
note_on channel=0 note=77 velocity=64 time=0
note_off channel=0 note=77 velocity=64 time=0.010416666666666666
note_on channel=0 note=75 velocity=64 time=0
note_off channel=0 note=75 velocity=64 time=0.010416666666666666
note_on channel=0 note=74 velocity=64 time=0
note_off channel=0 note=74 velocity=64 time=0.020833333333333332
note_on channel=0 note=72 velocity=64 time=0
note_off channel=0 note=72 velocity=64 time=0.020833333333333332
note_on channel=0 note=76 velocity=64 time=0
note_off channel=0 note=76 velocity=64 time=0.0625
note_on channel=0 note=74 velocity=64 time=0
note_off channel=0 note=74 velocity=64 time=0.010416666666666666
note_on channel=0 note=73 velocity=64 time=0
note_off channel=0 note=73 velocity=64 time=0.010416666666666666
note_on channel=0 note=71 velocity=64 time=0
note_off channel=0 note=71 velocity=64 time=0.020833333333333332
note_on channel=0 note=75 velocity=64 time=0
note_off channel=0 note=75 velocity=64 time=0.028125
note_on channel=0 note=73 velocity=64 time=0
note_on channel=0 note=72 velocity=64 time=0.013541666666666667
note_off channel=0 note=73 velocity=64 time=0.0010416666666666667
note_off channel=0 note=72 velocity=64 time=0.019791666666666666
note_on channel=0 note=70 velocity=64 time=0
note_off channel=0 note=70 velocity=64 time=0.020833333333333332
note_on channel=0 note=74 velocity=64 time=0
note_off channel=0 note=74 velocity=64 time=0.010416666666666666
note_on channel=0 note=72 velocity=64 time=0
note_off channel=0 note=72 velocity=64 time=0.03125
note_on channel=0 note=71 velocity=64 time=0
note_off channel=0 note=71 velocity=64 time=0.020833333333333332
note_on channel=0 note=69 velocity=64 time=0
note_off channel=0 note=69 velocity=64 time=0.0625
note_on channel=0 note=73 velocity=64 time=0
note_off channel=0 note=73 velocity=64 time=0.041666666666666664
note_on channel=0 note=71 velocity=64 time=0
note_off channel=0 note=71 velocity=64 time=0.041666666666666664
note_on channel=0 note=70 velocity=64 time=0
note_off channel=0 note=70 velocity=64 time=0.041666666666666664
note_on channel=0 note=68 velocity=64 time=0
note_off channel=0 note=68 velocity=64 time=0.020833333333333332
note_on channel=0 note=72 velocity=64 time=0
note_off channel=0 note=72 velocity=64 time=0.010416666666666666
note_on channel=0 note=70 velocity=64 time=0
note_off channel=0 note=70 velocity=64 time=0.010416666666666666
note_on channel=0 note=69 velocity=64 time=0
note_off channel=0 note=69 velocity=64 time=0.0625
note_on channel=0 note=67 velocity=64 time=0
note_off channel=0 note=67 velocity=64 time=0.010416666666666666
note_on channel=0 note=71 velocity=64 time=0
note_off channel=0 note=71 velocity=64 time=0.010416666666666666
note_on channel=0 note=69 velocity=64 time=0
note_off channel=0 note=69 velocity=64 time=0.041666666666666664
note_on channel=0 note=68 velocity=64 time=0
note_off channel=0 note=68 velocity=64 time=0.028125
note_on channel=0 note=66 velocity=64 time=0
note_on channel=0 note=70 velocity=64 time=0.013541666666666667
note_off channel=0 note=66 velocity=64 time=0.0010416666666666667
note_off channel=0 note=70 velocity=64 time=0.05520833333333333
note_on channel=0 note=68 velocity=64 time=0
note_on channel=0 note=67 velocity=64 time=0.013541666666666667
note_off channel=0 note=68 velocity=64 time=0.0010416666666666667
note_on channel=0 note=65 velocity=64 time=0.0125
note_off channel=0 note=67 velocity=64 time=0.0010416666666666667
note_off channel=0 note=65 velocity=64 time=0.040625
note_on channel=0 note=69 velocity=64 time=0
note_off channel=0 note=69 velocity=64 time=0.020833333333333332
note_on channel=0 note=67 velocity=64 time=0
note_off channel=0 note=67 velocity=64 time=0.020833333333333332
note_on channel=0 note=66 velocity=64 time=0
note_off channel=0 note=66 velocity=64 time=0.041666666666666664
note_on channel=0 note=64 velocity=64 time=0
note_off channel=0 note=64 velocity=64 time=0.041666666666666664
note_on channel=0 note=68 velocity=64 time=0
note_off channel=0 note=68 velocity=64 time=0.041666666666666664
note_on channel=0 note=66 velocity=64 time=0
note_off channel=0 note=66 velocity=64 time=0.010416666666666666
note_on channel=0 note=65 velocity=64 time=0
note_off channel=0 note=65 velocity=64 time=0.010416666666666666
note_on channel=0 note=63 velocity=64 time=0
note_off channel=0 note=63 velocity=64 time=0.020833333333333332
note_on channel=0 note=67 velocity=64 time=0
note_off channel=0 note=67 velocity=64 time=0.010416666666666666
note_on channel=0 note=65 velocity=64 time=0
note_off channel=0 note=65 velocity=64 time=0.010416666666666666
note_on channel=0 note=64 velocity=64 time=0
note_off channel=0 note=64 velocity=64 time=0.020833333333333332
note_on channel=0 note=62 velocity=64 time=0
note_off channel=0 note=62 velocity=64 time=0.020833333333333332
note_on channel=0 note=66 velocity=64 time=0
note_off channel=0 note=66 velocity=64 time=0.020833333333333332
note_on channel=0 note=64 velocity=64 time=0
note_off channel=0 note=64 velocity=64 time=0.08333333333333333
note_on channel=0 note=63 velocity=64 time=0
note_off channel=0 note=63 velocity=64 time=0.014583333333333334
note_on channel=0 note=61 velocity=64 time=0
note_on channel=0 note=65 velocity=64 time=0.027083333333333334
note_off channel=0 note=61 velocity=64 time=0.0010416666666666667
note_off channel=0 note=65 velocity=64 time=0.027083333333333334
note_on channel=0 note=63 velocity=64 time=0
note_on channel=0 note=62 velocity=64 time=0.013541666666666667
note_off channel=0 note=63 velocity=64 time=0.0010416666666666667
note_off channel=0 note=62 velocity=64 time=0.06145833333333333
note_on channel=0 note=60 velocity=64 time=0
note_off channel=0 note=60 velocity=64 time=0.020833333333333332
note_on channel=0 note=64 velocity=64 time=0
note_off channel=0 note=64 velocity=64 time=0.014583333333333334
note_on channel=0 note=62 velocity=64 time=0
note_on channel=0 note=61 velocity=64 time=0.013541666666666667
note_off channel=0 note=62 velocity=64 time=0.0010416666666666667
note_off channel=0 note=61 velocity=64 time=0.027083333333333334
note_on channel=0 note=59 velocity=64 time=0
note_on channel=0 note=63 velocity=64 time=0.027083333333333334
note_off channel=0 note=59 velocity=64 time=0.0010416666666666667
note_off channel=0 note=63 velocity=64 time=0.05520833333333333
note_on channel=0 note=61 velocity=64 time=0
note_on channel=0 note=60 velocity=80 time=0.027083333333333334
note_off channel=0 note=61 velocity=64 time=0.0010416666666666667
note_off channel=0 note=60 velocity=64 time=0.08229166666666667
note_on channel=0 note=61 velocity=64 time=0
note_off channel=0 note=61 velocity=64 time=0.16666666666666666
note_on channel=0 note=62 velocity=64 time=0
note_off channel=0 note=62 velocity=64 time=0.1875
note_on channel=0 note=63 velocity=64 time=0
note_off channel=0 note=63 velocity=64 time=0.03125
note_on channel=0 note=64 velocity=64 time=0
note_off channel=0 note=64 velocity=64 time=0.03125
note_on channel=0 note=65 velocity=64 time=0
note_off channel=0 note=65 velocity=64 time=0.25
note_on channel=0 note=66 velocity=64 time=0
note_off channel=0 note=66 velocity=64 time=0.03125
note_on channel=0 note=67 velocity=64 time=0
note_off channel=0 note=67 velocity=64 time=0.09375
note_on channel=0 note=68 velocity=64 time=0
note_off channel=0 note=68 velocity=64 time=0.041666666666666664
note_on channel=0 note=69 velocity=64 time=0
note_off channel=0 note=69 velocity=64 time=0.08333333333333333
note_on channel=0 note=70 velocity=64 time=0
note_off channel=0 note=70 velocity=64 time=0.08333333333333333
note_on channel=0 note=71 velocity=64 time=0
note_off channel=0 note=71 velocity=64 time=0.16666666666666666
note_on channel=0 note=72 velocity=64 time=0
note_off channel=0 note=72 velocity=64 time=0.125
note_on channel=0 note=73 velocity=64 time=0
note_off channel=0 note=73 velocity=64 time=0.041666666666666664
note_on channel=0 note=74 velocity=64 time=0
note_off channel=0 note=74 velocity=64 time=0.08333333333333333
note_on channel=0 note=75 velocity=64 time=0
note_off channel=0 note=75 velocity=64 time=0.125
note_on channel=0 note=76 velocity=64 time=0
note_off channel=0 note=76 velocity=64 time=0.0625
note_on channel=0 note=77 velocity=64 time=0
note_off channel=0 note=77 velocity=64 time=0.0625
note_on channel=0 note=78 velocity=64 time=0
note_off channel=0 note=78 velocity=64 time=0.25
note_on channel=0 note=79 velocity=64 time=0
note_off channel=0 note=79 velocity=64 time=0.2
note_on channel=0 note=78 velocity=64 time=0
note_off channel=0 note=78 velocity=64 time=0.13333333333333333
note_on channel=0 note=77 velocity=64 time=0
note_off channel=0 note=77 velocity=64 time=0.03333333333333333
note_on channel=0 note=76 velocity=64 time=0
note_off channel=0 note=76 velocity=64 time=0.03333333333333333
note_on channel=0 note=75 velocity=64 time=0
note_off channel=0 note=75 velocity=64 time=0.15
note_on channel=0 note=74 velocity=64 time=0
note_off channel=0 note=74 velocity=64 time=0.05
note_on channel=0 note=73 velocity=64 time=0
note_off channel=0 note=73 velocity=64 time=0.15
note_on channel=0 note=72 velocity=64 time=0
note_off channel=0 note=72 velocity=64 time=0.05
note_on channel=0 note=71 velocity=64 time=0
note_off channel=0 note=71 velocity=64 time=0.06666666666666667
note_on channel=0 note=70 velocity=64 time=0
note_off channel=0 note=70 velocity=64 time=0.03333333333333333
note_on channel=0 note=69 velocity=64 time=0
note_off channel=0 note=69 velocity=64 time=0.1
note_on channel=0 note=68 velocity=64 time=0
note_off channel=0 note=68 velocity=64 time=0.2
note_on channel=0 note=67 velocity=64 time=0
note_off channel=0 note=67 velocity=64 time=0.03333333333333333
note_on channel=0 note=66 velocity=64 time=0
note_off channel=0 note=66 velocity=64 time=0.03333333333333333
note_on channel=0 note=65 velocity=64 time=0
note_off channel=0 note=65 velocity=64 time=0.13333333333333333
note_on channel=0 note=64 velocity=64 time=0
note_off channel=0 note=64 velocity=64 time=0.2
note_on channel=0 note=63 velocity=64 time=0
note_off channel=0 note=63 velocity=64 time=0.3
note_on channel=0 note=62 velocity=64 time=0
note_off channel=0 note=62 velocity=64 time=0.075
note_on channel=0 note=61 velocity=64 time=0
note_off channel=0 note=61 velocity=64 time=0.025
note_on channel=0 note=60 velocity=96 time=0
note_off channel=0 note=60 velocity=64 time=0.03125
note_on channel=0 note=61 velocity=64 time=0
note_off channel=0 note=61 velocity=64 time=0.03125
note_on channel=0 note=59 velocity=64 time=0
note_off channel=0 note=59 velocity=64 time=0.03125
note_on channel=0 note=61 velocity=64 time=0
note_off channel=0 note=61 velocity=64 time=0.03125
note_on channel=0 note=62 velocity=64 time=0
note_off channel=0 note=62 velocity=64 time=0.03125
note_on channel=0 note=60 velocity=64 time=0
note_off channel=0 note=60 velocity=64 time=0.03125
note_on channel=0 note=62 velocity=64 time=0
note_off channel=0 note=62 velocity=64 time=0.03125
note_on channel=0 note=63 velocity=64 time=0
note_off channel=0 note=63 velocity=64 time=0.03125
note_on channel=0 note=61 velocity=64 time=0
note_off channel=0 note=61 velocity=64 time=0.03125
note_on channel=0 note=63 velocity=64 time=0
note_off channel=0 note=63 velocity=64 time=0.03125
note_on channel=0 note=64 velocity=64 time=0
note_off channel=0 note=64 velocity=64 time=0.03125
note_on channel=0 note=62 velocity=64 time=0
note_off channel=0 note=62 velocity=64 time=0.03125
note_on channel=0 note=64 velocity=64 time=0
note_off channel=0 note=64 velocity=64 time=0.0625
note_on channel=0 note=65 velocity=64 time=0
note_off channel=0 note=65 velocity=64 time=0.03125
note_on channel=0 note=63 velocity=64 time=0
note_off channel=0 note=63 velocity=64 time=0.03125
note_on channel=0 note=65 velocity=64 time=0
note_off channel=0 note=65 velocity=64 time=0.03125
note_on channel=0 note=66 velocity=64 time=0
note_off channel=0 note=66 velocity=64 time=0.03125
note_on channel=0 note=64 velocity=64 time=0
note_off channel=0 note=64 velocity=64 time=0.0625
note_on channel=0 note=66 velocity=64 time=0
note_off channel=0 note=66 velocity=64 time=0.03125
note_on channel=0 note=67 velocity=64 time=0
note_off channel=0 note=67 velocity=64 time=0.03125
note_on channel=0 note=65 velocity=64 time=0
note_off channel=0 note=65 velocity=64 time=0.03125
note_on channel=0 note=67 velocity=64 time=0
note_off channel=0 note=67 velocity=64 time=0.03125
note_on channel=0 note=68 velocity=64 time=0
note_off channel=0 note=68 velocity=64 time=0.0625
note_on channel=0 note=66 velocity=64 time=0
note_off channel=0 note=66 velocity=64 time=0.03125
note_on channel=0 note=68 velocity=64 time=0
note_off channel=0 note=68 velocity=64 time=0.03125
note_on channel=0 note=69 velocity=64 time=0
note_off channel=0 note=69 velocity=64 time=0.03125
note_on channel=0 note=67 velocity=64 time=0
note_off channel=0 note=67 velocity=64 time=0.03125
note_on channel=0 note=69 velocity=64 time=0
note_off channel=0 note=69 velocity=64 time=0.03125
note_on channel=0 note=70 velocity=64 time=0
note_off channel=0 note=70 velocity=64 time=0.03125
note_on channel=0 note=68 velocity=64 time=0
note_off channel=0 note=68 velocity=64 time=0.03125
note_on channel=0 note=70 velocity=64 time=0
note_off channel=0 note=70 velocity=64 time=0.03125
note_on channel=0 note=71 velocity=64 time=0
note_off channel=0 note=71 velocity=64 time=0.03125
note_on channel=0 note=69 velocity=64 time=0
note_off channel=0 note=69 velocity=64 time=0.03125
note_on channel=0 note=71 velocity=64 time=0
note_off channel=0 note=71 velocity=64 time=0.03125
note_on channel=0 note=72 velocity=64 time=0
note_off channel=0 note=72 velocity=64 time=0.03125
note_on channel=0 note=70 velocity=64 time=0
note_off channel=0 note=70 velocity=64 time=0.03125
note_on channel=0 note=72 velocity=64 time=0
note_off channel=0 note=72 velocity=64 time=0.03125
note_on channel=0 note=73 velocity=64 time=0
note_off channel=0 note=73 velocity=64 time=0.03125
note_on channel=0 note=71 velocity=64 time=0
note_off channel=0 note=71 velocity=64 time=0.03125
note_on channel=0 note=73 velocity=64 time=0
note_off channel=0 note=73 velocity=64 time=0.0625
note_on channel=0 note=74 velocity=64 time=0
note_off channel=0 note=74 velocity=64 time=0.03125
note_on channel=0 note=72 velocity=64 time=0
note_off channel=0 note=72 velocity=64 time=0.03125
note_on channel=0 note=74 velocity=64 time=0
note_off channel=0 note=74 velocity=64 time=0.0625
note_on channel=0 note=75 velocity=64 time=0
note_off channel=0 note=75 velocity=64 time=0.041666666666666664
note_on channel=0 note=73 velocity=64 time=0
note_off channel=0 note=73 velocity=64 time=0.041666666666666664
note_on channel=0 note=75 velocity=64 time=0
note_off channel=0 note=75 velocity=64 time=0.041666666666666664
note_on channel=0 note=76 velocity=64 time=0
note_off channel=0 note=76 velocity=64 time=0.041666666666666664
note_on channel=0 note=74 velocity=64 time=0
note_off channel=0 note=74 velocity=64 time=0.041666666666666664
note_on channel=0 note=76 velocity=64 time=0
note_off channel=0 note=76 velocity=64 time=0.041666666666666664
note_on channel=0 note=77 velocity=64 time=0
note_off channel=0 note=77 velocity=64 time=0.03125
note_on channel=0 note=75 velocity=64 time=0
note_off channel=0 note=75 velocity=64 time=0.03125
note_on channel=0 note=77 velocity=64 time=0
note_off channel=0 note=77 velocity=64 time=0.03125
note_on channel=0 note=78 velocity=64 time=0
note_off channel=0 note=78 velocity=64 time=0.03125
note_on channel=0 note=76 velocity=64 time=0
note_off channel=0 note=76 velocity=64 time=0.03125
note_on channel=0 note=78 velocity=64 time=0
note_off channel=0 note=78 velocity=64 time=0.03125
note_on channel=0 note=79 velocity=64 time=0
note_off channel=0 note=79 velocity=64 time=0.03125
note_on channel=0 note=77 velocity=64 time=0
note_off channel=0 note=77 velocity=64 time=0.03125
note_on channel=0 note=79 velocity=64 time=0
note_off channel=0 note=79 velocity=64 time=0.1
note_on channel=0 note=78 velocity=64 time=0
note_off channel=0 note=78 velocity=64 time=0.05
note_on channel=0 note=78 velocity=64 time=0
note_off channel=0 note=78 velocity=64 time=0.03333333333333333
note_on channel=0 note=77 velocity=64 time=0
note_off channel=0 note=77 velocity=64 time=0.016666666666666666
note_on channel=0 note=77 velocity=64 time=0
note_off channel=0 note=77 velocity=64 time=0.05
note_on channel=0 note=76 velocity=64 time=0
note_off channel=0 note=76 velocity=64 time=0.05
note_on channel=0 note=76 velocity=64 time=0
note_off channel=0 note=76 velocity=64 time=0.03333333333333333
note_on channel=0 note=75 velocity=64 time=0
note_off channel=0 note=75 velocity=64 time=0.06666666666666667
note_on channel=0 note=75 velocity=64 time=0
note_off channel=0 note=75 velocity=64 time=0.1
note_on channel=0 note=74 velocity=64 time=0
note_off channel=0 note=74 velocity=64 time=0.06666666666666667
note_on channel=0 note=74 velocity=64 time=0
note_off channel=0 note=74 velocity=64 time=0.016666666666666666
note_on channel=0 note=73 velocity=64 time=0
note_off channel=0 note=73 velocity=64 time=0.016666666666666666
note_on channel=0 note=73 velocity=64 time=0
note_off channel=0 note=73 velocity=64 time=0.06666666666666667
note_on channel=0 note=72 velocity=64 time=0
note_off channel=0 note=72 velocity=64 time=0.03333333333333333
note_on channel=0 note=72 velocity=64 time=0
note_off channel=0 note=72 velocity=64 time=0.06666666666666667
note_on channel=0 note=71 velocity=64 time=0
note_off channel=0 note=71 velocity=64 time=0.03333333333333333
note_on channel=0 note=71 velocity=64 time=0
note_off channel=0 note=71 velocity=64 time=0.1
note_on channel=0 note=70 velocity=64 time=0
note_off channel=0 note=70 velocity=64 time=0.016666666666666666
note_on channel=0 note=70 velocity=64 time=0
note_off channel=0 note=70 velocity=64 time=0.03333333333333333
note_on channel=0 note=69 velocity=64 time=0
note_off channel=0 note=69 velocity=64 time=0.05
note_on channel=0 note=69 velocity=64 time=0
note_off channel=0 note=69 velocity=64 time=0.06666666666666667
note_on channel=0 note=68 velocity=64 time=0
note_off channel=0 note=68 velocity=64 time=0.03333333333333333
note_on channel=0 note=68 velocity=64 time=0
note_off channel=0 note=68 velocity=64 time=0.06666666666666667
note_on channel=0 note=67 velocity=64 time=0
note_off channel=0 note=67 velocity=64 time=0.03333333333333333
note_on channel=0 note=67 velocity=64 time=0
note_off channel=0 note=67 velocity=64 time=0.15
note_on channel=0 note=66 velocity=64 time=0
note_off channel=0 note=66 velocity=64 time=0.0125
note_on channel=0 note=66 velocity=64 time=0
note_off channel=0 note=66 velocity=64 time=0.0125
note_on channel=0 note=65 velocity=64 time=0
note_off channel=0 note=65 velocity=64 time=0.025
note_on channel=0 note=65 velocity=64 time=0
note_off channel=0 note=65 velocity=64 time=0.0125
note_on channel=0 note=64 velocity=64 time=0
note_off channel=0 note=64 velocity=64 time=0.0125
note_on channel=0 note=64 velocity=64 time=0
note_off channel=0 note=64 velocity=64 time=0.025
note_on channel=0 note=63 velocity=64 time=0
note_off channel=0 note=63 velocity=64 time=0.15
note_on channel=0 note=63 velocity=64 time=0
note_off channel=0 note=63 velocity=64 time=0.1
note_on channel=0 note=62 velocity=64 time=0
note_off channel=0 note=62 velocity=64 time=0.03333333333333333
note_on channel=0 note=62 velocity=64 time=0
note_off channel=0 note=62 velocity=64 time=0.06666666666666667
note_on channel=0 note=61 velocity=64 time=0
note_off channel=0 note=61 velocity=64 time=0.15
note_on channel=0 note=61 velocity=64 time=0
note_off channel=0 note=61 velocity=64 time=0.0375
note_on channel=0 note=60 velocity=64 time=0
note_off channel=0 note=60 velocity=64 time=0.0125
note_on channel=0 note=60 velocity=80 time=0
note_off channel=0 note=60 velocity=64 time=0.052083333333333336
note_on channel=0 note=61 velocity=64 time=0
note_on channel=0 note=63 velocity=64 time=0.0125
note_off channel=0 note=61 velocity=64 time=0.0010416666666666667
note_on channel=0 note=62 velocity=64 time=0.011458333333333333
note_off channel=0 note=63 velocity=64 time=0.0010416666666666667
note_off channel=0 note=62 velocity=64 time=0.01875
note_on channel=0 note=61 velocity=64 time=0
note_on channel=0 note=62 velocity=64 time=0.01875
note_off channel=0 note=61 velocity=64 time=0.0010416666666666667
note_off channel=0 note=62 velocity=64 time=0.0375
note_on channel=0 note=64 velocity=64 time=0
note_off channel=0 note=64 velocity=64 time=0.03854166666666667
note_on channel=0 note=63 velocity=64 time=0
note_on channel=0 note=62 velocity=64 time=0.009375
note_off channel=0 note=63 velocity=64 time=0.0010416666666666667
note_off channel=0 note=62 velocity=64 time=0.028125
note_on channel=0 note=63 velocity=64 time=0
note_on channel=0 note=65 velocity=64 time=0.051041666666666666
note_off channel=0 note=63 velocity=64 time=0.0010416666666666667
note_off channel=0 note=65 velocity=64 time=0.0125
note_on channel=0 note=64 velocity=64 time=0
note_on channel=0 note=63 velocity=64 time=0.0125
note_off channel=0 note=64 velocity=64 time=0.0010416666666666667
note_off channel=0 note=63 velocity=64 time=0.07604166666666666
note_on channel=0 note=64 velocity=64 time=0
note_on channel=0 note=66 velocity=64 time=0.028125
note_off channel=0 note=64 velocity=64 time=0.0010416666666666667
note_off channel=0 note=66 velocity=64 time=0.009375
note_on channel=0 note=65 velocity=64 time=0
note_on channel=0 note=64 velocity=64 time=0.0125
note_off channel=0 note=65 velocity=64 time=0.0010416666666666667
note_on channel=0 note=65 velocity=64 time=0.011458333333333333
note_off channel=0 note=64 velocity=64 time=0.0010416666666666667
note_off channel=0 note=65 velocity=64 time=0.0125
note_on channel=0 note=67 velocity=64 time=0
note_on channel=0 note=66 velocity=64 time=0.009375
note_off channel=0 note=67 velocity=64 time=0.0010416666666666667
note_on channel=0 note=65 velocity=64 time=0.008333333333333333
note_off channel=0 note=66 velocity=64 time=0.0010416666666666667
note_on channel=0 note=66 velocity=64 time=0.017708333333333333
note_off channel=0 note=65 velocity=64 time=0.0010416666666666667
note_off channel=0 note=66 velocity=64 time=0.0375
note_on channel=0 note=68 velocity=64 time=0
note_off channel=0 note=68 velocity=64 time=0.026041666666666668
note_on channel=0 note=67 velocity=64 time=0
note_on channel=0 note=66 velocity=64 time=0.051041666666666666
note_off channel=0 note=67 velocity=64 time=0.0010416666666666667
note_off channel=0 note=66 velocity=64 time=0.01875
note_on channel=0 note=67 velocity=64 time=0
note_on channel=0 note=69 velocity=64 time=0.01875
note_off channel=0 note=67 velocity=64 time=0.0010416666666666667
note_on channel=0 note=68 velocity=64 time=0.008333333333333333
note_off channel=0 note=69 velocity=64 time=0.0010416666666666667
note_off channel=0 note=68 velocity=64 time=0.028125
note_on channel=0 note=67 velocity=64 time=0
note_on channel=0 note=68 velocity=64 time=0.051041666666666666
note_off channel=0 note=67 velocity=64 time=0.0010416666666666667
note_off channel=0 note=68 velocity=64 time=0.025
note_on channel=0 note=70 velocity=64 time=0
note_on channel=0 note=69 velocity=64 time=0.01875
note_off channel=0 note=70 velocity=64 time=0.0010416666666666667
note_off channel=0 note=69 velocity=64 time=0.057291666666666664
note_on channel=0 note=68 velocity=64 time=0
note_on channel=0 note=69 velocity=64 time=0.01875
note_off channel=0 note=68 velocity=64 time=0.0010416666666666667
note_off channel=0 note=69 velocity=64 time=0.01875
note_on channel=0 note=71 velocity=64 time=0
note_on channel=0 note=70 velocity=64 time=0.0125
note_off channel=0 note=71 velocity=64 time=0.0010416666666666667
note_off channel=0 note=70 velocity=64 time=0.025
note_on channel=0 note=69 velocity=64 time=0
note_on channel=0 note=70 velocity=64 time=0.009375
note_off channel=0 note=69 velocity=64 time=0.0010416666666666667
note_on channel=0 note=72 velocity=64 time=0.008333333333333333
note_off channel=0 note=70 velocity=64 time=0.0010416666666666667
note_on channel=0 note=71 velocity=64 time=0.05625
note_off channel=0 note=72 velocity=64 time=0.0010416666666666667
note_off channel=0 note=71 velocity=64 time=0.025
note_on channel=0 note=70 velocity=64 time=0
note_on channel=0 note=71 velocity=64 time=0.0125
note_off channel=0 note=70 velocity=64 time=0.0010416666666666667
note_off channel=0 note=71 velocity=64 time=0.0375
note_on channel=0 note=73 velocity=64 time=0
note_off channel=0 note=73 velocity=64 time=0.029166666666666667
note_on channel=0 note=72 velocity=64 time=0
note_on channel=0 note=71 velocity=64 time=0.009375
note_off channel=0 note=72 velocity=64 time=0.0010416666666666667
note_off channel=0 note=71 velocity=64 time=0.0375
note_on channel=0 note=72 velocity=64 time=0
note_off channel=0 note=72 velocity=64 time=0.029166666666666667
note_on channel=0 note=74 velocity=64 time=0
note_on channel=0 note=73 velocity=64 time=0.009375
note_off channel=0 note=74 velocity=64 time=0.0010416666666666667
note_off channel=0 note=73 velocity=64 time=0.0375
note_on channel=0 note=72 velocity=64 time=0
note_off channel=0 note=72 velocity=64 time=0.03854166666666667
note_on channel=0 note=73 velocity=64 time=0
note_on channel=0 note=75 velocity=64 time=0.01875
note_off channel=0 note=73 velocity=64 time=0.0010416666666666667
note_off channel=0 note=75 velocity=64 time=0.01875
note_on channel=0 note=74 velocity=64 time=0
note_on channel=0 note=73 velocity=64 time=0.009375
note_off channel=0 note=74 velocity=64 time=0.0010416666666666667
note_on channel=0 note=74 velocity=64 time=0.008333333333333333
note_off channel=0 note=73 velocity=64 time=0.0010416666666666667
note_off channel=0 note=74 velocity=64 time=0.057291666666666664
note_on channel=0 note=76 velocity=64 time=0
note_on channel=0 note=75 velocity=64 time=0.051041666666666666
note_off channel=0 note=76 velocity=64 time=0.0010416666666666667
note_off channel=0 note=75 velocity=64 time=0.025
note_on channel=0 note=74 velocity=64 time=0
note_on channel=0 note=75 velocity=64 time=0.025
note_off channel=0 note=74 velocity=64 time=0.0010416666666666667
note_on channel=0 note=77 velocity=64 time=0.011458333333333333
note_off channel=0 note=75 velocity=64 time=0.0010416666666666667
note_off channel=0 note=77 velocity=64 time=0.009375
note_on channel=0 note=76 velocity=64 time=0
note_on channel=0 note=75 velocity=64 time=0.028125
note_off channel=0 note=76 velocity=64 time=0.0010416666666666667
note_off channel=0 note=75 velocity=64 time=0.009375
note_on channel=0 note=76 velocity=64 time=0
note_on channel=0 note=78 velocity=64 time=0.009375
note_off channel=0 note=76 velocity=64 time=0.0010416666666666667
note_on channel=0 note=77 velocity=64 time=0.05625
note_off channel=0 note=78 velocity=64 time=0.0010416666666666667
note_off channel=0 note=77 velocity=64 time=0.028125
note_on channel=0 note=76 velocity=64 time=0
note_on channel=0 note=77 velocity=64 time=0.009375
note_off channel=0 note=76 velocity=64 time=0.0010416666666666667
note_off channel=0 note=77 velocity=64 time=0.0375
note_on channel=0 note=79 velocity=64 time=0
note_on channel=0 note=78 velocity=64 time=0.0125
note_off channel=0 note=79 velocity=64 time=0.0010416666666666667
note_off channel=0 note=78 velocity=64 time=0.025
note_on channel=0 note=77 velocity=64 time=0
note_off channel=0 note=77 velocity=64 time=0.03854166666666667
note_on channel=0 note=78 velocity=64 time=0
note_on channel=0 note=80 velocity=64 time=0.057291666666666664
note_off channel=0 note=78 velocity=64 time=0.0010416666666666667
note_off channel=0 note=80 velocity=64 time=0.01875
note_on channel=0 note=79 velocity=64 time=0
note_off channel=0 note=79 velocity=64 time=0.03854166666666667
note_on channel=0 note=78 velocity=64 time=0
note_on channel=0 note=79 velocity=64 time=0.009375
note_off channel=0 note=78 velocity=64 time=0.0010416666666666667
note_off channel=0 note=79 velocity=64 time=0.028125
note_on channel=0 note=81 velocity=64 time=0
note_on channel=0 note=80 velocity=64 time=0.025
note_off channel=0 note=81 velocity=64 time=0.0010416666666666667
note_on channel=0 note=79 velocity=64 time=0.05
note_off channel=0 note=80 velocity=64 time=0.0010416666666666667
note_off channel=0 note=79 velocity=64 time=0.007291666666666667
note_on channel=0 note=78 velocity=64 time=0
note_off channel=0 note=78 velocity=64 time=0.008333333333333333
note_on channel=0 note=77 velocity=64 time=0
note_off channel=0 note=77 velocity=64 time=0.05
note_on channel=0 note=76 velocity=64 time=0
note_off channel=0 note=76 velocity=64 time=0.022916666666666665
note_on channel=0 note=75 velocity=64 time=0
note_on channel=0 note=78 velocity=64 time=0.010416666666666666
note_off channel=0 note=75 velocity=64 time=0.0010416666666666667
note_off channel=0 note=78 velocity=64 time=0.007291666666666667
note_on channel=0 note=77 velocity=64 time=0
note_off channel=0 note=77 velocity=64 time=0.025
note_on channel=0 note=76 velocity=64 time=0
note_off channel=0 note=76 velocity=64 time=0.03333333333333333
note_on channel=0 note=75 velocity=64 time=0
note_off channel=0 note=75 velocity=64 time=0.025
note_on channel=0 note=74 velocity=64 time=0
note_off channel=0 note=74 velocity=64 time=0.008333333333333333
note_on channel=0 note=77 velocity=64 time=0
note_off channel=0 note=77 velocity=64 time=0.016666666666666666
note_on channel=0 note=76 velocity=64 time=0
note_off channel=0 note=76 velocity=64 time=0.016666666666666666
note_on channel=0 note=75 velocity=64 time=0
note_off channel=0 note=75 velocity=64 time=0.022916666666666665
note_on channel=0 note=74 velocity=64 time=0
note_on channel=0 note=73 velocity=64 time=0.010416666666666666
note_off channel=0 note=74 velocity=64 time=0.0010416666666666667
note_off channel=0 note=73 velocity=64 time=0.03229166666666666
note_on channel=0 note=76 velocity=64 time=0
note_off channel=0 note=76 velocity=64 time=0.025
note_on channel=0 note=75 velocity=64 time=0
note_off channel=0 note=75 velocity=64 time=0.008333333333333333
note_on channel=0 note=74 velocity=64 time=0
note_off channel=0 note=74 velocity=64 time=0.008333333333333333
note_on channel=0 note=73 velocity=64 time=0
note_off channel=0 note=73 velocity=64 time=0.025
note_on channel=0 note=72 velocity=64 time=0
note_off channel=0 note=72 velocity=64 time=0.008333333333333333
note_on channel=0 note=75 velocity=64 time=0
note_off channel=0 note=75 velocity=64 time=0.025
note_on channel=0 note=74 velocity=64 time=0
note_off channel=0 note=74 velocity=64 time=0.022916666666666665
note_on channel=0 note=73 velocity=64 time=0
note_on channel=0 note=72 velocity=64 time=0.04375
note_off channel=0 note=73 velocity=64 time=0.0010416666666666667
note_off channel=0 note=72 velocity=64 time=0.015625
note_on channel=0 note=71 velocity=64 time=0
note_off channel=0 note=71 velocity=64 time=0.008333333333333333
note_on channel=0 note=74 velocity=64 time=0
note_off channel=0 note=74 velocity=64 time=0.008333333333333333
note_on channel=0 note=73 velocity=64 time=0
note_off channel=0 note=73 velocity=64 time=0.008333333333333333
note_on channel=0 note=72 velocity=64 time=0
note_off channel=0 note=72 velocity=64 time=0.025
note_on channel=0 note=71 velocity=64 time=0
note_off channel=0 note=71 velocity=64 time=0.05
note_on channel=0 note=70 velocity=64 time=0
note_off channel=0 note=70 velocity=64 time=0.016666666666666666
note_on channel=0 note=73 velocity=64 time=0
note_off channel=0 note=73 velocity=64 time=0.008333333333333333
note_on channel=0 note=72 velocity=64 time=0
note_off channel=0 note=72 velocity=64 time=0.008333333333333333
note_on channel=0 note=71 velocity=64 time=0
note_off channel=0 note=71 velocity=64 time=0.016666666666666666
note_on channel=0 note=70 velocity=64 time=0
note_off channel=0 note=70 velocity=64 time=0.016666666666666666
note_on channel=0 note=69 velocity=64 time=0
note_off channel=0 note=69 velocity=64 time=0.016666666666666666
note_on channel=0 note=72 velocity=64 time=0
note_off channel=0 note=72 velocity=64 time=0.03333333333333333
note_on channel=0 note=71 velocity=64 time=0
note_off channel=0 note=71 velocity=64 time=0.03333333333333333
note_on channel=0 note=70 velocity=64 time=0
note_off channel=0 note=70 velocity=64 time=0.016666666666666666
note_on channel=0 note=69 velocity=64 time=0
note_off channel=0 note=69 velocity=64 time=0.008333333333333333
note_on channel=0 note=68 velocity=64 time=0
note_off channel=0 note=68 velocity=64 time=0.008333333333333333
note_on channel=0 note=71 velocity=64 time=0
note_off channel=0 note=71 velocity=64 time=0.03333333333333333
note_on channel=0 note=70 velocity=64 time=0
note_off channel=0 note=70 velocity=64 time=0.011458333333333333
note_on channel=0 note=69 velocity=64 time=0
note_on channel=0 note=68 velocity=64 time=0.021875
note_off channel=0 note=69 velocity=64 time=0.0010416666666666667
note_off channel=0 note=68 velocity=64 time=0.015625
note_on channel=0 note=67 velocity=64 time=0
note_off channel=0 note=67 velocity=64 time=0.016666666666666666
note_on channel=0 note=70 velocity=64 time=0
note_off channel=0 note=70 velocity=64 time=0.03333333333333333
note_on channel=0 note=69 velocity=64 time=0
note_off channel=0 note=69 velocity=64 time=0.03333333333333333
note_on channel=0 note=68 velocity=64 time=0
note_off channel=0 note=68 velocity=64 time=0.008333333333333333
note_on channel=0 note=67 velocity=64 time=0
note_off channel=0 note=67 velocity=64 time=0.025
note_on channel=0 note=66 velocity=64 time=0
note_off channel=0 note=66 velocity=64 time=0.03333333333333333
note_on channel=0 note=69 velocity=64 time=0
note_off channel=0 note=69 velocity=64 time=0.03333333333333333
note_on channel=0 note=68 velocity=64 time=0
note_off channel=0 note=68 velocity=64 time=0.022916666666666665
note_on channel=0 note=67 velocity=64 time=0
note_on channel=0 note=66 velocity=64 time=0.010416666666666666
note_off channel=0 note=67 velocity=64 time=0.0010416666666666667
note_off channel=0 note=66 velocity=64 time=0.010416666666666666
note_on channel=0 note=65 velocity=64 time=0
note_off channel=0 note=65 velocity=64 time=0.011458333333333333
note_on channel=0 note=68 velocity=64 time=0
note_on channel=0 note=67 velocity=64 time=0.04375
note_off channel=0 note=68 velocity=64 time=0.0010416666666666667
note_off channel=0 note=67 velocity=64 time=0.015625
note_on channel=0 note=66 velocity=64 time=0
note_off channel=0 note=66 velocity=64 time=0.016666666666666666
note_on channel=0 note=65 velocity=64 time=0
note_off channel=0 note=65 velocity=64 time=0.03333333333333333
note_on channel=0 note=64 velocity=64 time=0
note_off channel=0 note=64 velocity=64 time=0.04479166666666667
note_on channel=0 note=67 velocity=64 time=0
note_on channel=0 note=66 velocity=64 time=0.021875
note_off channel=0 note=67 velocity=64 time=0.0010416666666666667
note_off channel=0 note=66 velocity=64 time=0.02395833333333333
note_on channel=0 note=65 velocity=64 time=0
note_off channel=0 note=65 velocity=64 time=0.008333333333333333
note_on channel=0 note=64 velocity=64 time=0
note_off channel=0 note=64 velocity=64 time=0.016666666666666666
note_on channel=0 note=63 velocity=64 time=0
note_off channel=0 note=63 velocity=64 time=0.016666666666666666
note_on channel=0 note=66 velocity=64 time=0
note_off channel=0 note=66 velocity=64 time=0.022916666666666665
note_on channel=0 note=65 velocity=64 time=0
note_on channel=0 note=64 velocity=64 time=0.010416666666666666
note_off channel=0 note=65 velocity=64 time=0.0010416666666666667
note_off channel=0 note=64 velocity=64 time=0.02395833333333333
note_on channel=0 note=63 velocity=64 time=0
note_off channel=0 note=63 velocity=64 time=0.008333333333333333
note_on channel=0 note=62 velocity=64 time=0
note_off channel=0 note=62 velocity=64 time=0.04479166666666667
note_on channel=0 note=65 velocity=64 time=0
note_on channel=0 note=64 velocity=64 time=0.021875
note_off channel=0 note=65 velocity=64 time=0.0010416666666666667
note_off channel=0 note=64 velocity=64 time=0.04375
note_on channel=0 note=63 velocity=64 time=0
note_on channel=0 note=62 velocity=64 time=0.021875
note_off channel=0 note=63 velocity=64 time=0.0010416666666666667
note_off channel=0 note=62 velocity=64 time=0.021875
note_on channel=0 note=61 velocity=64 time=0
note_on channel=0 note=64 velocity=64 time=0.010416666666666666
note_off channel=0 note=61 velocity=64 time=0.0010416666666666667
note_off channel=0 note=64 velocity=64 time=0.02395833333333333
note_on channel=0 note=63 velocity=64 time=0
note_off channel=0 note=63 velocity=64 time=0.008333333333333333
note_on channel=0 note=62 velocity=64 time=0
note_off channel=0 note=62 velocity=64 time=0.016666666666666666
note_on channel=0 note=61 velocity=64 time=0
note_off channel=0 note=61 velocity=64 time=0.05
note_on channel=0 note=60 velocity=64 time=0
note_off channel=0 note=60 velocity=64 time=0.025
note_on channel=0 note=63 velocity=64 time=0
note_off channel=0 note=63 velocity=64 time=0.008333333333333333
note_on channel=0 note=62 velocity=64 time=0
note_off channel=0 note=62 velocity=64 time=0.008333333333333333
note_on channel=0 note=61 velocity=64 time=0
note_off channel=0 note=61 velocity=64 time=0.025
note_on channel=0 note=60 velocity=64 time=0
note_off channel=0 note=60 velocity=64 time=0.016666666666666666
note_on channel=0 note=59 velocity=64 time=0
note_off channel=0 note=59 velocity=64 time=0.016666666666666666
note_on channel=0 note=62 velocity=64 time=0
note_off channel=0 note=62 velocity=64 time=0.008333333333333333
note_on channel=0 note=61 velocity=64 time=0
note_off channel=0 note=61 velocity=64 time=0.008333333333333333
note_on channel=0 note=60 velocity=64 time=0
note_off channel=0 note=60 velocity=64 time=0.016666666666666666
note_on channel=0 note=59 velocity=64 time=0
note_off channel=0 note=59 velocity=64 time=0.06666666666666667
note_on channel=0 note=58 velocity=64 time=0
note_off channel=0 note=58 velocity=64 time=0.04479166666666667
note_on channel=0 note=61 velocity=64 time=0
note_off channel=0 note=61 velocity=64 time=0.011458333333333333
note_on channel=0 note=60 velocity=64 time=0
note_on channel=0 note=59 velocity=64 time=0.010416666666666666
note_off channel=0 note=60 velocity=64 time=0.0010416666666666667
note_off channel=0 note=59 velocity=64 time=0.015625
note_on channel=0 note=58 velocity=64 time=0
note_off channel=0 note=58 velocity=64 time=0.016666666666666666
note_on channel=0 note=57 velocity=64 time=0
note_off channel=0 note=57 velocity=64 time=0.03333333333333333
note_on channel=0 note=60 velocity=96 time=0
note_off channel=0 note=60 velocity=64 time=0.015625
note_on channel=0 note=61 velocity=64 time=0
note_off channel=0 note=61 velocity=64 time=0.015625
note_on channel=0 note=62 velocity=64 time=0
note_on channel=0 note=60 velocity=64 time=0.014583333333333334
note_off channel=0 note=62 velocity=64 time=0.0010416666666666667
note_off channel=0 note=60 velocity=64 time=0.010416666666666666
note_on channel=0 note=61 velocity=64 time=0
note_off channel=0 note=61 velocity=64 time=0.034375
note_on channel=0 note=62 velocity=64 time=0
note_on channel=0 note=63 velocity=64 time=0.06041666666666667
note_off channel=0 note=62 velocity=64 time=0.0010416666666666667
note_on channel=0 note=61 velocity=64 time=0.029166666666666667
note_off channel=0 note=63 velocity=64 time=0.0010416666666666667
note_off channel=0 note=61 velocity=64 time=0.021875
note_on channel=0 note=62 velocity=64 time=0
note_off channel=0 note=62 velocity=64 time=0.011458333333333333
note_on channel=0 note=63 velocity=64 time=0
note_off channel=0 note=63 velocity=64 time=0.011458333333333333
note_on channel=0 note=64 velocity=64 time=0
note_on channel=0 note=62 velocity=64 time=0.04479166666666667
note_off channel=0 note=64 velocity=64 time=0.0010416666666666667
note_off channel=0 note=62 velocity=64 time=0.04479166666666667
note_on channel=0 note=63 velocity=64 time=0
note_off channel=0 note=63 velocity=64 time=0.022916666666666665
note_on channel=0 note=64 velocity=64 time=0
note_off channel=0 note=64 velocity=64 time=0.022916666666666665
note_on channel=0 note=65 velocity=64 time=0
note_on channel=0 note=63 velocity=64 time=0.021875
note_off channel=0 note=65 velocity=64 time=0.0010416666666666667
note_off channel=0 note=63 velocity=64 time=0.021875
note_on channel=0 note=64 velocity=64 time=0
note_off channel=0 note=64 velocity=64 time=0.015625
note_on channel=0 note=65 velocity=64 time=0
note_on channel=0 note=66 velocity=64 time=0.030208333333333334
note_off channel=0 note=65 velocity=64 time=0.0010416666666666667
note_on channel=0 note=64 velocity=64 time=0.04375
note_off channel=0 note=66 velocity=64 time=0.0010416666666666667
note_off channel=0 note=64 velocity=64 time=0.014583333333333334
note_on channel=0 note=65 velocity=64 time=0
note_on channel=0 note=66 velocity=64 time=0.030208333333333334
note_off channel=0 note=65 velocity=64 time=0.0010416666666666667
note_off channel=0 note=66 velocity=64 time=0.021875
note_on channel=0 note=67 velocity=64 time=0
note_on channel=0 note=65 velocity=64 time=0.06770833333333333
note_off channel=0 note=67 velocity=64 time=0.0010416666666666667
note_off channel=0 note=65 velocity=64 time=0.021875
note_on channel=0 note=66 velocity=64 time=0
note_off channel=0 note=66 velocity=64 time=0.022916666666666665
note_on channel=0 note=67 velocity=64 time=0
note_off channel=0 note=67 velocity=64 time=0.015625
note_on channel=0 note=68 velocity=64 time=0
note_on channel=0 note=66 velocity=64 time=0.014583333333333334
note_off channel=0 note=68 velocity=64 time=0.0010416666666666667
note_off channel=0 note=66 velocity=64 time=0.014583333333333334
note_on channel=0 note=67 velocity=64 time=0
note_off channel=0 note=67 velocity=64 time=0.011458333333333333
note_on channel=0 note=68 velocity=64 time=0
note_on channel=0 note=69 velocity=64 time=0.03333333333333333
note_off channel=0 note=68 velocity=64 time=0.0010416666666666667
note_off channel=0 note=69 velocity=64 time=0.014583333333333334
note_on channel=0 note=67 velocity=64 time=0
note_on channel=0 note=68 velocity=64 time=0.030208333333333334
note_off channel=0 note=67 velocity=64 time=0.0010416666666666667
note_on channel=0 note=69 velocity=64 time=0.029166666666666667
note_off channel=0 note=68 velocity=64 time=0.0010416666666666667
note_on channel=0 note=70 velocity=64 time=0.029166666666666667
note_off channel=0 note=69 velocity=64 time=0.0010416666666666667
note_on channel=0 note=68 velocity=64 time=0.029166666666666667
note_off channel=0 note=70 velocity=64 time=0.0010416666666666667
note_off channel=0 note=68 velocity=64 time=0.014583333333333334
note_on channel=0 note=69 velocity=64 time=0
note_on channel=0 note=70 velocity=64 time=0.014583333333333334
note_off channel=0 note=69 velocity=64 time=0.0010416666666666667
note_on channel=0 note=71 velocity=64 time=0.059375
note_off channel=0 note=70 velocity=64 time=0.0010416666666666667
note_off channel=0 note=71 velocity=64 time=0.03333333333333333
note_on channel=0 note=69 velocity=64 time=0
note_off channel=0 note=69 velocity=64 time=0.011458333333333333
note_on channel=0 note=70 velocity=64 time=0
note_off channel=0 note=70 velocity=64 time=0.011458333333333333
note_on channel=0 note=71 velocity=64 time=0
note_off channel=0 note=71 velocity=64 time=0.034375
note_on channel=0 note=72 velocity=64 time=0
note_on channel=0 note=70 velocity=64 time=0.030208333333333334
note_off channel=0 note=72 velocity=64 time=0.0010416666666666667
note_on channel=0 note=71 velocity=64 time=0.013541666666666667
note_off channel=0 note=70 velocity=64 time=0.0010416666666666667
note_off channel=0 note=71 velocity=64 time=0.010416666666666666
note_on channel=0 note=72 velocity=64 time=0
note_off channel=0 note=72 velocity=64 time=0.034375
note_on channel=0 note=73 velocity=64 time=0
note_off channel=0 note=73 velocity=64 time=0.04583333333333333
note_on channel=0 note=71 velocity=64 time=0
note_off channel=0 note=71 velocity=64 time=0.011458333333333333
note_on channel=0 note=72 velocity=64 time=0
note_on channel=0 note=73 velocity=64 time=0.03333333333333333
note_off channel=0 note=72 velocity=64 time=0.0010416666666666667
note_off channel=0 note=73 velocity=64 time=0.021875
note_on channel=0 note=74 velocity=64 time=0
note_off channel=0 note=74 velocity=64 time=0.022916666666666665
note_on channel=0 note=72 velocity=64 time=0
note_on channel=0 note=73 velocity=64 time=0.030208333333333334
note_off channel=0 note=72 velocity=64 time=0.0010416666666666667
note_off channel=0 note=73 velocity=64 time=0.014583333333333334
note_on channel=0 note=74 velocity=64 time=0
note_on channel=0 note=75 velocity=64 time=0.04479166666666667
note_off channel=0 note=74 velocity=64 time=0.0010416666666666667
note_off channel=0 note=75 velocity=64 time=0.021875
note_on channel=0 note=73 velocity=64 time=0
note_off channel=0 note=73 velocity=64 time=0.022916666666666665
note_on channel=0 note=74 velocity=64 time=0
note_off channel=0 note=74 velocity=64 time=0.022916666666666665
note_on channel=0 note=75 velocity=64 time=0
note_on channel=0 note=76 velocity=64 time=0.06770833333333333
note_off channel=0 note=75 velocity=64 time=0.0010416666666666667
note_off channel=0 note=76 velocity=64 time=0.014583333333333334
note_on channel=0 note=74 velocity=64 time=0
note_on channel=0 note=75 velocity=64 time=0.014583333333333334
note_off channel=0 note=74 velocity=64 time=0.0010416666666666667
note_off channel=0 note=75 velocity=64 time=0.014583333333333334
note_on channel=0 note=76 velocity=64 time=0
note_on channel=0 note=77 velocity=64 time=0.030208333333333334
note_off channel=0 note=76 velocity=64 time=0.0010416666666666667
note_on channel=0 note=75 velocity=64 time=0.013541666666666667
note_off channel=0 note=77 velocity=64 time=0.0010416666666666667
note_off channel=0 note=75 velocity=64 time=0.014583333333333334
note_on channel=0 note=76 velocity=64 time=0
note_on channel=0 note=77 velocity=64 time=0.030208333333333334
note_off channel=0 note=76 velocity=64 time=0.0010416666666666667
note_off channel=0 note=77 velocity=64 time=0.014583333333333334
note_on channel=0 note=78 velocity=64 time=0
note_on channel=0 note=76 velocity=64 time=0.030208333333333334
note_off channel=0 note=78 velocity=64 time=0.0010416666666666667
note_on channel=0 note=77 velocity=64 time=0.04375
note_off channel=0 note=76 velocity=64 time=0.0010416666666666667
note_off channel=0 note=77 velocity=64 time=0.014583333333333334
note_on channel=0 note=78 velocity=64 time=0
note_on channel=0 note=79 velocity=64 time=0.030208333333333334
note_off channel=0 note=78 velocity=64 time=0.0010416666666666667
note_on channel=0 note=77 velocity=64 time=0.059375
note_off channel=0 note=79 velocity=64 time=0.0010416666666666667
note_on channel=0 note=78 velocity=64 time=0.029166666666666667
note_off channel=0 note=77 velocity=64 time=0.0010416666666666667
note_off channel=0 note=78 velocity=64 time=0.03333333333333333
note_on channel=0 note=79 velocity=64 time=0
note_off channel=0 note=79 velocity=64 time=0.011458333333333333
note_on channel=0 note=80 velocity=64 time=0
note_on channel=0 note=78 velocity=64 time=0.030208333333333334
note_off channel=0 note=80 velocity=64 time=0.0010416666666666667
note_on channel=0 note=79 velocity=64 time=0.013541666666666667
note_off channel=0 note=78 velocity=64 time=0.0010416666666666667
note_off channel=0 note=79 velocity=64 time=0.008333333333333333
note_on channel=0 note=78 velocity=64 time=0
note_off channel=0 note=78 velocity=64 time=0.027083333333333334
note_on channel=0 note=77 velocity=64 time=0
note_off channel=0 note=77 velocity=64 time=0.02395833333333333
note_on channel=0 note=78 velocity=64 time=0
note_on channel=0 note=79 velocity=64 time=0.011458333333333333
note_off channel=0 note=78 velocity=64 time=0.0010416666666666667
note_on channel=0 note=78 velocity=64 time=0.010416666666666666
note_off channel=0 note=79 velocity=64 time=0.0010416666666666667
note_off channel=0 note=78 velocity=64 time=0.011458333333333333
note_on channel=0 note=77 velocity=64 time=0
note_off channel=0 note=77 velocity=64 time=0.04791666666666666
note_on channel=0 note=76 velocity=64 time=0
note_on channel=0 note=77 velocity=64 time=0.035416666666666666
note_off channel=0 note=76 velocity=64 time=0.0010416666666666667
note_on channel=0 note=78 velocity=64 time=0.010416666666666666
note_off channel=0 note=77 velocity=64 time=0.0010416666666666667
note_off channel=0 note=78 velocity=64 time=0.011458333333333333
note_on channel=0 note=77 velocity=64 time=0
note_on channel=0 note=76 velocity=64 time=0.011458333333333333
note_off channel=0 note=77 velocity=64 time=0.0010416666666666667
note_off channel=0 note=76 velocity=64 time=0.026041666666666668
note_on channel=0 note=75 velocity=64 time=0
note_on channel=0 note=76 velocity=64 time=0.008333333333333333
note_off channel=0 note=75 velocity=64 time=0.0010416666666666667
note_off channel=0 note=76 velocity=64 time=0.035416666666666666
note_on channel=0 note=77 velocity=64 time=0
note_on channel=0 note=76 velocity=64 time=0.046875
note_off channel=0 note=77 velocity=64 time=0.0010416666666666667
note_off channel=0 note=76 velocity=64 time=0.011458333333333333
note_on channel=0 note=75 velocity=64 time=0
note_on channel=0 note=74 velocity=64 time=0.011458333333333333
note_off channel=0 note=75 velocity=64 time=0.0010416666666666667
note_off channel=0 note=74 velocity=64 time=0.011458333333333333
note_on channel=0 note=75 velocity=64 time=0
note_on channel=0 note=76 velocity=64 time=0.011458333333333333
note_off channel=0 note=75 velocity=64 time=0.0010416666666666667
note_off channel=0 note=76 velocity=64 time=0.011458333333333333
note_on channel=0 note=75 velocity=64 time=0
note_on channel=0 note=74 velocity=64 time=0.035416666666666666
note_off channel=0 note=75 velocity=64 time=0.0010416666666666667
note_off channel=0 note=74 velocity=64 time=0.022916666666666665
note_on channel=0 note=73 velocity=64 time=0
note_on channel=0 note=74 velocity=64 time=0.011458333333333333
note_off channel=0 note=73 velocity=64 time=0.0010416666666666667
note_off channel=0 note=74 velocity=64 time=0.022916666666666665
note_on channel=0 note=75 velocity=64 time=0
note_on channel=0 note=74 velocity=64 time=0.011458333333333333
note_off channel=0 note=75 velocity=64 time=0.0010416666666666667
note_off channel=0 note=74 velocity=64 time=0.008333333333333333
note_on channel=0 note=73 velocity=64 time=0
note_off channel=0 note=73 velocity=64 time=0.009375
note_on channel=0 note=72 velocity=64 time=0
note_on channel=0 note=73 velocity=64 time=0.053125
note_off channel=0 note=72 velocity=64 time=0.0010416666666666667
note_off channel=0 note=73 velocity=64 time=0.008333333333333333
note_on channel=0 note=74 velocity=64 time=0
note_on channel=0 note=73 velocity=64 time=0.008333333333333333
note_off channel=0 note=74 velocity=64 time=0.0010416666666666667
note_on channel=0 note=72 velocity=64 time=0.016666666666666666
note_off channel=0 note=73 velocity=64 time=0.0010416666666666667
note_off channel=0 note=72 velocity=64 time=0.026041666666666668
note_on channel=0 note=71 velocity=64 time=0
note_off channel=0 note=71 velocity=64 time=0.009375
note_on channel=0 note=72 velocity=64 time=0
note_on channel=0 note=73 velocity=64 time=0.046875
note_off channel=0 note=72 velocity=64 time=0.0010416666666666667
note_off channel=0 note=73 velocity=64 time=0.022916666666666665
note_on channel=0 note=72 velocity=64 time=0
note_off channel=0 note=72 velocity=64 time=0.009375
note_on channel=0 note=71 velocity=64 time=0
note_on channel=0 note=70 velocity=64 time=0.026041666666666668
note_off channel=0 note=71 velocity=64 time=0.0010416666666666667
note_off channel=0 note=70 velocity=64 time=0.017708333333333333
note_on channel=0 note=71 velocity=64 time=0
note_on channel=0 note=72 velocity=64 time=0.017708333333333333
note_off channel=0 note=71 velocity=64 time=0.0010416666666666667
note_on channel=0 note=71 velocity=64 time=0.052083333333333336
note_off channel=0 note=72 velocity=64 time=0.0010416666666666667
note_off channel=0 note=71 velocity=64 time=0.008333333333333333
note_on channel=0 note=70 velocity=64 time=0
note_on channel=0 note=69 velocity=64 time=0.008333333333333333
note_off channel=0 note=70 velocity=64 time=0.0010416666666666667
note_on channel=0 note=70 velocity=64 time=0.016666666666666666
note_off channel=0 note=69 velocity=64 time=0.0010416666666666667
note_off channel=0 note=70 velocity=64 time=0.017708333333333333
note_on channel=0 note=71 velocity=64 time=0
note_on channel=0 note=70 velocity=64 time=0.035416666666666666
note_off channel=0 note=71 velocity=64 time=0.0010416666666666667
note_on channel=0 note=69 velocity=64 time=0.016666666666666666
note_off channel=0 note=70 velocity=64 time=0.0010416666666666667
note_on channel=0 note=68 velocity=64 time=0.016666666666666666
note_off channel=0 note=69 velocity=64 time=0.0010416666666666667
note_on channel=0 note=69 velocity=64 time=0.016666666666666666
note_off channel=0 note=68 velocity=64 time=0.0010416666666666667
note_on channel=0 note=70 velocity=64 time=0.016666666666666666
note_off channel=0 note=69 velocity=64 time=0.0010416666666666667
note_off channel=0 note=70 velocity=64 time=0.022916666666666665
note_on channel=0 note=69 velocity=64 time=0
note_off channel=0 note=69 velocity=64 time=0.0125
note_on channel=0 note=68 velocity=64 time=0
note_on channel=0 note=67 velocity=64 time=0.035416666666666666
note_off channel=0 note=68 velocity=64 time=0.0010416666666666667
note_on channel=0 note=68 velocity=64 time=0.016666666666666666
note_off channel=0 note=67 velocity=64 time=0.0010416666666666667
note_off channel=0 note=68 velocity=64 time=0.008333333333333333
note_on channel=0 note=69 velocity=64 time=0
note_on channel=0 note=68 velocity=64 time=0.008333333333333333
note_off channel=0 note=69 velocity=64 time=0.0010416666666666667
note_off channel=0 note=68 velocity=64 time=0.035416666666666666
note_on channel=0 note=67 velocity=64 time=0
note_on channel=0 note=66 velocity=64 time=0.026041666666666668
note_off channel=0 note=67 velocity=64 time=0.0010416666666666667
note_off channel=0 note=66 velocity=64 time=0.008333333333333333
note_on channel=0 note=67 velocity=64 time=0
note_on channel=0 note=68 velocity=64 time=0.035416666666666666
note_off channel=0 note=67 velocity=64 time=0.0010416666666666667
note_off channel=0 note=68 velocity=64 time=0.008333333333333333
note_on channel=0 note=67 velocity=64 time=0
note_on channel=0 note=66 velocity=64 time=0.026041666666666668
note_off channel=0 note=67 velocity=64 time=0.0010416666666666667
note_off channel=0 note=66 velocity=64 time=0.008333333333333333
note_on channel=0 note=65 velocity=64 time=0
note_off channel=0 note=65 velocity=64 time=0.027083333333333334
note_on channel=0 note=66 velocity=64 time=0
note_on channel=0 note=67 velocity=64 time=0.035416666666666666
note_off channel=0 note=66 velocity=64 time=0.0010416666666666667
note_on channel=0 note=66 velocity=64 time=0.010416666666666666
note_off channel=0 note=67 velocity=64 time=0.0010416666666666667
note_off channel=0 note=66 velocity=64 time=0.022916666666666665
note_on channel=0 note=65 velocity=64 time=0
note_off channel=0 note=65 velocity=64 time=0.0125
note_on channel=0 note=64 velocity=64 time=0
note_off channel=0 note=64 velocity=64 time=0.02395833333333333
note_on channel=0 note=65 velocity=64 time=0
note_on channel=0 note=66 velocity=64 time=0.022916666666666665
note_off channel=0 note=65 velocity=64 time=0.0010416666666666667
note_off channel=0 note=66 velocity=64 time=0.011458333333333333
note_on channel=0 note=65 velocity=64 time=0
note_on channel=0 note=64 velocity=64 time=0.011458333333333333
note_off channel=0 note=65 velocity=64 time=0.0010416666666666667
note_off channel=0 note=64 velocity=64 time=0.011458333333333333
note_on channel=0 note=63 velocity=64 time=0
note_on channel=0 note=64 velocity=64 time=0.046875
note_off channel=0 note=63 velocity=64 time=0.0010416666666666667
note_off channel=0 note=64 velocity=64 time=0.022916666666666665
note_on channel=0 note=65 velocity=64 time=0
note_off channel=0 note=65 velocity=64 time=0.0125
note_on channel=0 note=64 velocity=64 time=0
note_on channel=0 note=63 velocity=64 time=0.011458333333333333
note_off channel=0 note=64 velocity=64 time=0.0010416666666666667
note_off channel=0 note=63 velocity=64 time=0.022916666666666665
note_on channel=0 note=62 velocity=64 time=0
note_on channel=0 note=63 velocity=64 time=0.017708333333333333
note_off channel=0 note=62 velocity=64 time=0.0010416666666666667
note_on channel=0 note=64 velocity=64 time=0.016666666666666666
note_off channel=0 note=63 velocity=64 time=0.0010416666666666667
note_off channel=0 note=64 velocity=64 time=0.035416666666666666
note_on channel=0 note=63 velocity=64 time=0
note_on channel=0 note=62 velocity=64 time=0.022916666666666665
note_off channel=0 note=63 velocity=64 time=0.0010416666666666667
note_off channel=0 note=62 velocity=64 time=0.011458333333333333
note_on channel=0 note=61 velocity=64 time=0
note_on channel=0 note=62 velocity=64 time=0.035416666666666666
note_off channel=0 note=61 velocity=64 time=0.0010416666666666667
note_on channel=0 note=63 velocity=64 time=0.034375
note_off channel=0 note=62 velocity=64 time=0.0010416666666666667
note_off channel=0 note=63 velocity=64 time=0.017708333333333333
note_on channel=0 note=62 velocity=64 time=0
note_on channel=0 note=61 velocity=64 time=0.017708333333333333
note_off channel=0 note=62 velocity=64 time=0.0010416666666666667
note_on channel=0 note=60 velocity=64 time=0.007291666666666667
note_off channel=0 note=61 velocity=64 time=0.0010416666666666667
note_off channel=0 note=60 velocity=64 time=0.008333333333333333
note_on channel=0 note=61 velocity=64 time=0
note_on channel=0 note=62 velocity=64 time=0.053125
note_off channel=0 note=61 velocity=64 time=0.0010416666666666667
note_off channel=0 note=62 velocity=64 time=0.008333333333333333
note_on channel=0 note=61 velocity=64 time=0
note_on channel=0 note=60 velocity=64 time=0.008333333333333333
note_off channel=0 note=61 velocity=64 time=0.0010416666666666667
note_off channel=0 note=60 velocity=64 time=0.053125
note_on channel=0 note=59 velocity=64 time=0
note_on channel=0 note=60 velocity=64 time=0.035416666666666666
note_off channel=0 note=59 velocity=64 time=0.0010416666666666667
note_off channel=0 note=60 velocity=64 time=0.022916666666666665
note_on channel=0 note=61 velocity=64 time=0
note_on channel=0 note=60 velocity=80 time=0.011458333333333333
note_off channel=0 note=61 velocity=64 time=0.0010416666666666667
note_off channel=0 note=60 velocity=64 time=0.040625
note_on channel=0 note=63 velocity=64 time=0
note_off channel=0 note=63 velocity=64 time=0.041666666666666664
note_on channel=0 note=61 velocity=64 time=0
note_off channel=0 note=61 velocity=64 time=0.041666666666666664
note_on channel=0 note=64 velocity=64 time=0
note_off channel=0 note=64 velocity=64 time=0.041666666666666664
note_on channel=0 note=62 velocity=64 time=0
note_off channel=0 note=62 velocity=64 time=0.08333333333333333
note_on channel=0 note=65 velocity=64 time=0
note_off channel=0 note=65 velocity=64 time=0.03125
note_on channel=0 note=63 velocity=64 time=0
note_off channel=0 note=63 velocity=64 time=0.09375
note_on channel=0 note=66 velocity=64 time=0
note_off channel=0 note=66 velocity=64 time=0.041666666666666664
note_on channel=0 note=64 velocity=64 time=0
note_off channel=0 note=64 velocity=64 time=0.041666666666666664
note_on channel=0 note=67 velocity=64 time=0
note_off channel=0 note=67 velocity=64 time=0.041666666666666664
note_on channel=0 note=65 velocity=64 time=0
note_off channel=0 note=65 velocity=64 time=0.03125
note_on channel=0 note=68 velocity=64 time=0
note_off channel=0 note=68 velocity=64 time=0.03125
note_on channel=0 note=66 velocity=64 time=0
note_off channel=0 note=66 velocity=64 time=0.0625
note_on channel=0 note=69 velocity=64 time=0
note_off channel=0 note=69 velocity=64 time=0.0625
note_on channel=0 note=67 velocity=64 time=0
note_off channel=0 note=67 velocity=64 time=0.03125
note_on channel=0 note=70 velocity=64 time=0
note_off channel=0 note=70 velocity=64 time=0.03125
note_on channel=0 note=68 velocity=64 time=0
note_off channel=0 note=68 velocity=64 time=0.08333333333333333
note_on channel=0 note=71 velocity=64 time=0
note_off channel=0 note=71 velocity=64 time=0.041666666666666664
note_on channel=0 note=69 velocity=64 time=0
note_off channel=0 note=69 velocity=64 time=0.041666666666666664
note_on channel=0 note=72 velocity=64 time=0
note_off channel=0 note=72 velocity=64 time=0.08333333333333333
note_on channel=0 note=70 velocity=64 time=0
note_off channel=0 note=70 velocity=64 time=0.03125
note_on channel=0 note=73 velocity=64 time=0
note_off channel=0 note=73 velocity=64 time=0.03125
note_on channel=0 note=71 velocity=64 time=0
note_off channel=0 note=71 velocity=64 time=0.0625
note_on channel=0 note=74 velocity=64 time=0
note_off channel=0 note=74 velocity=64 time=0.125
note_on channel=0 note=72 velocity=64 time=0
note_off channel=0 note=72 velocity=64 time=0.0625
note_on channel=0 note=75 velocity=64 time=0
note_off channel=0 note=75 velocity=64 time=0.0625
note_on channel=0 note=73 velocity=64 time=0
note_off channel=0 note=73 velocity=64 time=0.0625
note_on channel=0 note=76 velocity=64 time=0
note_off channel=0 note=76 velocity=64 time=0.03125
note_on channel=0 note=74 velocity=64 time=0
note_off channel=0 note=74 velocity=64 time=0.03125
note_on channel=0 note=77 velocity=64 time=0
note_off channel=0 note=77 velocity=64 time=0.041666666666666664
note_on channel=0 note=75 velocity=64 time=0
note_off channel=0 note=75 velocity=64 time=0.041666666666666664
note_on channel=0 note=78 velocity=64 time=0
note_off channel=0 note=78 velocity=64 time=0.041666666666666664
note_on channel=0 note=76 velocity=64 time=0
note_off channel=0 note=76 velocity=64 time=0.041666666666666664
note_on channel=0 note=79 velocity=64 time=0
note_off channel=0 note=79 velocity=64 time=0.08333333333333333
note_on channel=0 note=77 velocity=64 time=0
note_off channel=0 note=77 velocity=64 time=0.125
note_on channel=0 note=80 velocity=64 time=0
note_off channel=0 note=80 velocity=64 time=0.041666666666666664
note_on channel=0 note=78 velocity=64 time=0
note_off channel=0 note=78 velocity=64 time=0.041666666666666664
note_on channel=0 note=81 velocity=64 time=0
note_off channel=0 note=81 velocity=64 time=0.041666666666666664
note_on channel=0 note=79 velocity=64 time=0
note_off channel=0 note=79 velocity=64 time=0.014583333333333334
note_on channel=0 note=77 velocity=64 time=0
note_off channel=0 note=77 velocity=64 time=0.041666666666666664
note_on channel=0 note=78 velocity=64 time=0
note_on channel=0 note=79 velocity=64 time=0.027083333333333334
note_off channel=0 note=78 velocity=64 time=0.0010416666666666667
note_off channel=0 note=79 velocity=64 time=0.013541666666666667
note_on channel=0 note=78 velocity=64 time=0
note_on channel=0 note=76 velocity=64 time=0.013541666666666667
note_off channel=0 note=78 velocity=64 time=0.0010416666666666667
note_off channel=0 note=76 velocity=64 time=0.017708333333333333
note_on channel=0 note=77 velocity=64 time=0
note_off channel=0 note=77 velocity=64 time=0.01875
note_on channel=0 note=78 velocity=64 time=0
note_on channel=0 note=77 velocity=64 time=0.036458333333333336
note_off channel=0 note=78 velocity=64 time=0.0010416666666666667
note_off channel=0 note=77 velocity=64 time=0.036458333333333336
note_on channel=0 note=75 velocity=64 time=0
note_off channel=0 note=75 velocity=64 time=0.01875
note_on channel=0 note=76 velocity=64 time=0
note_on channel=0 note=77 velocity=64 time=0.036458333333333336
note_off channel=0 note=76 velocity=64 time=0.0010416666666666667
note_off channel=0 note=77 velocity=64 time=0.027083333333333334
note_on channel=0 note=76 velocity=64 time=0
note_on channel=0 note=74 velocity=64 time=0.027083333333333334
note_off channel=0 note=76 velocity=64 time=0.0010416666666666667
note_off channel=0 note=74 velocity=64 time=0.036458333333333336
note_on channel=0 note=75 velocity=64 time=0
note_off channel=0 note=75 velocity=64 time=0.01875
note_on channel=0 note=76 velocity=64 time=0
note_on channel=0 note=75 velocity=64 time=0.013541666666666667
note_off channel=0 note=76 velocity=64 time=0.0010416666666666667
note_on channel=0 note=73 velocity=64 time=0.0125
note_off channel=0 note=75 velocity=64 time=0.0010416666666666667
note_off channel=0 note=73 velocity=64 time=0.027083333333333334
note_on channel=0 note=74 velocity=64 time=0
note_off channel=0 note=74 velocity=64 time=0.0375
note_on channel=0 note=75 velocity=64 time=0
note_on channel=0 note=74 velocity=64 time=0.017708333333333333
note_off channel=0 note=75 velocity=64 time=0.0010416666666666667
note_off channel=0 note=74 velocity=64 time=0.040625
note_on channel=0 note=72 velocity=64 time=0
note_off channel=0 note=72 velocity=64 time=0.014583333333333334
note_on channel=0 note=73 velocity=64 time=0
note_off channel=0 note=73 velocity=64 time=0.01875
note_on channel=0 note=74 velocity=64 time=0
note_on channel=0 note=73 velocity=64 time=0.017708333333333333
note_off channel=0 note=74 velocity=64 time=0.0010416666666666667
note_off channel=0 note=73 velocity=64 time=0.017708333333333333
note_on channel=0 note=71 velocity=64 time=0
note_on channel=0 note=72 velocity=64 time=0.013541666666666667
note_off channel=0 note=71 velocity=64 time=0.0010416666666666667
note_off channel=0 note=72 velocity=64 time=0.040625
note_on channel=0 note=73 velocity=64 time=0
note_off channel=0 note=73 velocity=64 time=0.0375
note_on channel=0 note=72 velocity=64 time=0
note_off channel=0 note=72 velocity=64 time=0.01875
note_on channel=0 note=70 velocity=64 time=0
note_on channel=0 note=71 velocity=64 time=0.027083333333333334
note_off channel=0 note=70 velocity=64 time=0.0010416666666666667
note_off channel=0 note=71 velocity=64 time=0.013541666666666667
note_on channel=0 note=72 velocity=64 time=0
note_on channel=0 note=71 velocity=64 time=0.013541666666666667
note_off channel=0 note=72 velocity=64 time=0.0010416666666666667
note_off channel=0 note=71 velocity=64 time=0.017708333333333333
note_on channel=0 note=69 velocity=64 time=0
note_off channel=0 note=69 velocity=64 time=0.01875
note_on channel=0 note=70 velocity=64 time=0
note_on channel=0 note=71 velocity=64 time=0.036458333333333336
note_off channel=0 note=70 velocity=64 time=0.0010416666666666667
note_off channel=0 note=71 velocity=64 time=0.036458333333333336
note_on channel=0 note=70 velocity=64 time=0
note_on channel=0 note=68 velocity=64 time=0.027083333333333334
note_off channel=0 note=70 velocity=64 time=0.0010416666666666667
note_off channel=0 note=68 velocity=64 time=0.027083333333333334
note_on channel=0 note=69 velocity=64 time=0
note_off channel=0 note=69 velocity=64 time=0.041666666666666664
note_on channel=0 note=70 velocity=64 time=0
note_on channel=0 note=69 velocity=64 time=0.013541666666666667
note_off channel=0 note=70 velocity=64 time=0.0010416666666666667
note_off channel=0 note=69 velocity=64 time=0.040625
note_on channel=0 note=67 velocity=64 time=0
note_off channel=0 note=67 velocity=64 time=0.014583333333333334
note_on channel=0 note=68 velocity=64 time=0
note_off channel=0 note=68 velocity=64 time=0.041666666666666664
note_on channel=0 note=69 velocity=64 time=0
note_on channel=0 note=68 velocity=64 time=0.013541666666666667
note_off channel=0 note=69 velocity=64 time=0.0010416666666666667
note_on channel=0 note=66 velocity=64 time=0.0125
note_off channel=0 note=68 velocity=64 time=0.0010416666666666667
note_off channel=0 note=66 velocity=64 time=0.040625
note_on channel=0 note=67 velocity=64 time=0
note_off channel=0 note=67 velocity=64 time=0.01875
note_on channel=0 note=68 velocity=64 time=0
note_off channel=0 note=68 velocity=64 time=0.0375
note_on channel=0 note=67 velocity=64 time=0
note_on channel=0 note=65 velocity=64 time=0.036458333333333336
note_off channel=0 note=67 velocity=64 time=0.0010416666666666667
note_off channel=0 note=65 velocity=64 time=0.017708333333333333
note_on channel=0 note=66 velocity=64 time=0
note_off channel=0 note=66 velocity=64 time=0.01875
note_on channel=0 note=67 velocity=64 time=0
note_on channel=0 note=66 velocity=64 time=0.036458333333333336
note_off channel=0 note=67 velocity=64 time=0.0010416666666666667
note_off channel=0 note=66 velocity=64 time=0.027083333333333334
note_on channel=0 note=64 velocity=64 time=0
note_off channel=0 note=64 velocity=64 time=0.028125
note_on channel=0 note=65 velocity=64 time=0
note_off channel=0 note=65 velocity=64 time=0.01875
note_on channel=0 note=66 velocity=64 time=0
note_on channel=0 note=65 velocity=64 time=0.017708333333333333
note_off channel=0 note=66 velocity=64 time=0.0010416666666666667
note_off channel=0 note=65 velocity=64 time=0.017708333333333333
note_on channel=0 note=63 velocity=64 time=0
note_on channel=0 note=64 velocity=64 time=0.07395833333333333
note_off channel=0 note=63 velocity=64 time=0.0010416666666666667
note_off channel=0 note=64 velocity=64 time=0.017708333333333333
note_on channel=0 note=65 velocity=64 time=0
note_off channel=0 note=65 velocity=64 time=0.01875
note_on channel=0 note=64 velocity=64 time=0
note_on channel=0 note=62 velocity=64 time=0.013541666666666667
note_off channel=0 note=64 velocity=64 time=0.0010416666666666667
note_off channel=0 note=62 velocity=64 time=0.040625
note_on channel=0 note=63 velocity=64 time=0
note_off channel=0 note=63 velocity=64 time=0.041666666666666664
note_on channel=0 note=64 velocity=64 time=0
note_on channel=0 note=63 velocity=64 time=0.013541666666666667
note_off channel=0 note=64 velocity=64 time=0.0010416666666666667
note_off channel=0 note=63 velocity=64 time=0.036458333333333336
note_on channel=0 note=61 velocity=64 time=0
note_off channel=0 note=61 velocity=64 time=0.0375
note_on channel=0 note=62 velocity=64 time=0
note_on channel=0 note=63 velocity=64 time=0.017708333333333333
note_off channel=0 note=62 velocity=64 time=0.0010416666666666667
note_off channel=0 note=63 velocity=64 time=0.017708333333333333
note_on channel=0 note=62 velocity=64 time=0
note_off channel=0 note=62 velocity=64 time=0.028125
note_on channel=0 note=60 velocity=64 time=0
note_on channel=0 note=61 velocity=64 time=0.027083333333333334
note_off channel=0 note=60 velocity=64 time=0.0010416666666666667
note_off channel=0 note=61 velocity=64 time=0.040625
note_on channel=0 note=62 velocity=64 time=0
note_off channel=0 note=62 velocity=64 time=0.014583333333333334
note_on channel=0 note=61 velocity=64 time=0
note_on channel=0 note=59 velocity=64 time=0.027083333333333334
note_off channel=0 note=61 velocity=64 time=0.0010416666666666667
note_off channel=0 note=59 velocity=64 time=0.027083333333333334
note_on channel=0 note=60 velocity=64 time=0
note_off channel=0 note=60 velocity=64 time=0.028125
note_on channel=0 note=61 velocity=64 time=0
note_on channel=0 note=60 velocity=96 time=0.027083333333333334
note_off channel=0 note=61 velocity=64 time=0.0010416666666666667
note_off channel=0 note=60 velocity=64 time=0.010416666666666666
note_on channel=0 note=61 velocity=64 time=0
note_on channel=0 note=62 velocity=64 time=0.021875
note_off channel=0 note=61 velocity=64 time=0.0010416666666666667
note_off channel=0 note=62 velocity=64 time=0.03229166666666666
note_on channel=0 note=63 velocity=64 time=0
note_off channel=0 note=63 velocity=64 time=0.011458333333333333
note_on channel=0 note=64 velocity=64 time=0
note_on channel=0 note=61 velocity=64 time=0.021875
note_off channel=0 note=64 velocity=64 time=0.0010416666666666667
note_off channel=0 note=61 velocity=64 time=0.010416666666666666
note_on channel=0 note=62 velocity=64 time=0
note_on channel=0 note=63 velocity=64 time=0.021875
note_off channel=0 note=62 velocity=64 time=0.0010416666666666667
note_off channel=0 note=63 velocity=64 time=0.007291666666666667
note_on channel=0 note=64 velocity=64 time=0
note_off channel=0 note=64 velocity=64 time=0.025
note_on channel=0 note=65 velocity=64 time=0
note_off channel=0 note=65 velocity=64 time=0.011458333333333333
note_on channel=0 note=62 velocity=64 time=0
note_off channel=0 note=62 velocity=64 time=0.011458333333333333
note_on channel=0 note=63 velocity=64 time=0
note_on channel=0 note=64 velocity=64 time=0.010416666666666666
note_off channel=0 note=63 velocity=64 time=0.0010416666666666667
note_off channel=0 note=64 velocity=64 time=0.015625
note_on channel=0 note=65 velocity=64 time=0
note_off channel=0 note=65 velocity=64 time=0.05
note_on channel=0 note=66 velocity=64 time=0
note_off channel=0 note=66 velocity=64 time=0.03333333333333333
note_on channel=0 note=63 velocity=64 time=0
note_off channel=0 note=63 velocity=64 time=0.016666666666666666
note_on channel=0 note=64 velocity=64 time=0
note_off channel=0 note=64 velocity=64 time=0.008333333333333333
note_on channel=0 note=65 velocity=64 time=0
note_off channel=0 note=65 velocity=64 time=0.008333333333333333
note_on channel=0 note=66 velocity=64 time=0
note_off channel=0 note=66 velocity=64 time=0.011458333333333333
note_on channel=0 note=67 velocity=64 time=0
note_on channel=0 note=64 velocity=64 time=0.021875
note_off channel=0 note=67 velocity=64 time=0.0010416666666666667
note_off channel=0 note=64 velocity=64 time=0.03229166666666666
note_on channel=0 note=65 velocity=64 time=0
note_off channel=0 note=65 velocity=64 time=0.03333333333333333
note_on channel=0 note=66 velocity=64 time=0
note_off channel=0 note=66 velocity=64 time=0.03333333333333333
note_on channel=0 note=67 velocity=64 time=0
note_off channel=0 note=67 velocity=64 time=0.008333333333333333
note_on channel=0 note=68 velocity=64 time=0
note_off channel=0 note=68 velocity=64 time=0.008333333333333333
note_on channel=0 note=65 velocity=64 time=0
note_off channel=0 note=65 velocity=64 time=0.016666666666666666
note_on channel=0 note=66 velocity=64 time=0
note_off channel=0 note=66 velocity=64 time=0.016666666666666666
note_on channel=0 note=67 velocity=64 time=0
note_off channel=0 note=67 velocity=64 time=0.016666666666666666
note_on channel=0 note=68 velocity=64 time=0
note_off channel=0 note=68 velocity=64 time=0.025
note_on channel=0 note=69 velocity=64 time=0
note_off channel=0 note=69 velocity=64 time=0.008333333333333333
note_on channel=0 note=66 velocity=64 time=0
note_off channel=0 note=66 velocity=64 time=0.008333333333333333
note_on channel=0 note=67 velocity=64 time=0
MetaMessage('end_of_track', time=0)
